<svg version="1.1" xmlns="http://www.w3.org/2000/svg" viewBox="0 0 839.6637931387477 460.0688473768956" width="1679.3275862774954" height="920.1376947537912">
  <!-- svg-source:excalidraw -->
  
  <defs>
    <style class="style-fonts">
      @font-face {
        font-family: "Virgil";
        src: url("https://excalidraw.com/Virgil.woff2");
      }
      @font-face {
        font-family: "Cascadia";
        src: url("https://excalidraw.com/Cascadia.woff2");
      }
    </style>
    
  </defs>
  <rect x="0" y="0" width="839.6637931387477" height="460.0688473768956" fill="#ffffff"></rect><g stroke-linecap="round" transform="translate(326.5619508988509 10) rotate(0 52.5 40.5)"><path d="M20.25 0 M20.25 0 C35.55 1.25, 50.53 1.14, 84.75 0 M20.25 0 C40.82 0.84, 61.67 0.41, 84.75 0 M84.75 0 C97.71 -0.75, 105.61 7.99, 105 20.25 M84.75 0 C96.4 0.83, 107.23 5.03, 105 20.25 M105 20.25 C107.26 36.54, 104.77 48.73, 105 60.75 M105 20.25 C104.15 35.71, 105 49.64, 105 60.75 M105 60.75 C106.97 74.35, 98.79 82.33, 84.75 81 M105 60.75 C106.72 75.09, 96.05 79.61, 84.75 81 M84.75 81 C59.37 80.23, 34.71 83.51, 20.25 81 M84.75 81 C70.2 80.92, 56.76 81.47, 20.25 81 M20.25 81 C5.07 79.6, 1.67 75.79, 0 60.75 M20.25 81 C6.52 80.21, -1.89 75.14, 0 60.75 M0 60.75 C-1.27 50.48, 1.71 35.76, 0 20.25 M0 60.75 C0.14 49.62, -0.42 37.44, 0 20.25 M0 20.25 C1.1 4.96, 7.34 0.92, 20.25 0 M0 20.25 C-0.83 7.49, 8.54 1.52, 20.25 0" stroke="#1e1e1e" stroke-width="1" fill="none"></path></g><g transform="translate(352.701952195848 38) rotate(0 26.35999870300293 12.5)"><text x="26.35999870300293" y="0" font-family="Virgil, Segoe UI Emoji" font-size="20px" fill="#1e1e1e" text-anchor="middle" style="white-space: pre;" direction="ltr" dominant-baseline="text-before-edge">Game</text></g><g stroke-linecap="round"><g transform="translate(331.9331382916107 103.1216732912736) rotate(0 -58.212144414317606 48.67883878943597)"><path d="M0.68 -0.15 C-18.87 16.17, -96.98 81.19, -116.41 97.54 M-0.42 -1.28 C-20.17 15.21, -97.81 81.91, -117.11 98.64" stroke="#1e1e1e" stroke-width="1" fill="none"></path></g><g transform="translate(331.9331382916107 103.1216732912736) rotate(0 -58.212144414317606 48.67883878943597)"><path d="M-102.71 73.27 C-109.46 84, -114.26 92.86, -116.51 100.41 M-102.71 72.75 C-106.05 78.52, -109.14 85.47, -117.17 98.65" stroke="#1e1e1e" stroke-width="1" fill="none"></path></g><g transform="translate(331.9331382916107 103.1216732912736) rotate(0 -58.212144414317606 48.67883878943597)"><path d="M-89.31 88.81 C-101.06 93.77, -110.9 96.78, -116.51 100.41 M-89.31 88.29 C-95.84 90.39, -102.07 93.7, -117.17 98.65" stroke="#1e1e1e" stroke-width="1" fill="none"></path></g></g><mask></mask><g stroke-linecap="round" transform="translate(93.97738865742497 209.86210910142512) rotate(0 64.01824011519756 43.42496007814097)"><path d="M21.71 0 M21.71 0 C52.65 2.57, 81.02 0.26, 106.32 0 M21.71 0 C43.64 0.9, 64.86 -0.32, 106.32 0 M106.32 0 C121.35 0.96, 126.29 8.9, 128.04 21.71 M106.32 0 C120.02 1.8, 129.09 5.29, 128.04 21.71 M128.04 21.71 C129.06 33.71, 129.23 44.44, 128.04 65.14 M128.04 21.71 C127.01 29.76, 127.85 40.08, 128.04 65.14 M128.04 65.14 C128.19 79.05, 120.31 87.22, 106.32 86.85 M128.04 65.14 C128.36 79.16, 120.37 87.41, 106.32 86.85 M106.32 86.85 C72.11 88.71, 38.73 88.77, 21.71 86.85 M106.32 86.85 C88.03 87.16, 72.04 87.05, 21.71 86.85 M21.71 86.85 C5.93 86.64, 0.39 79.89, 0 65.14 M21.71 86.85 C6.04 85.3, -2.01 79.94, 0 65.14 M0 65.14 C-1.49 51.7, 0.11 42.56, 0 21.71 M0 65.14 C-0.49 54.84, -1.33 44.69, 0 21.71 M0 21.71 C0.95 8.33, 6.3 1.05, 21.71 0 M0 21.71 C-1.75 7.69, 5.42 0.98, 21.71 0" stroke="#1e1e1e" stroke-width="1" fill="none"></path></g><g transform="translate(113.39562648380411 215.78706917956606) rotate(0 44.60000228881836 37.5)"><text x="44.60000228881836" y="0" font-family="Virgil, Segoe UI Emoji" font-size="20px" fill="#1e1e1e" text-anchor="middle" style="white-space: pre;" direction="ltr" dominant-baseline="text-before-edge">Client </text><text x="44.60000228881836" y="25" font-family="Virgil, Segoe UI Emoji" font-size="20px" fill="#1e1e1e" text-anchor="middle" style="white-space: pre;" direction="ltr" dominant-baseline="text-before-edge">Userinfo </text><text x="44.60000228881836" y="50" font-family="Virgil, Segoe UI Emoji" font-size="20px" fill="#1e1e1e" text-anchor="middle" style="white-space: pre;" direction="ltr" dominant-baseline="text-before-edge">Changed</text></g><g stroke-linecap="round" transform="translate(10 397.67720486184004) rotate(0 52.5 25)"><path d="M12.5 0 M12.5 0 C32.3 1.89, 53.92 -0.01, 92.5 0 M12.5 0 C39.53 0.31, 68.29 0.16, 92.5 0 M92.5 0 C102.53 -1.07, 103.98 3.19, 105 12.5 M92.5 0 C98.74 1.22, 107.09 4.65, 105 12.5 M105 12.5 C103.01 20.09, 104.21 24.35, 105 37.5 M105 12.5 C104.87 18.65, 105.3 24.43, 105 37.5 M105 37.5 C106.87 45.37, 100.34 49.1, 92.5 50 M105 37.5 C103.34 46.54, 99.46 49.92, 92.5 50 M92.5 50 C71.74 51.32, 52.17 48.14, 12.5 50 M92.5 50 C69.96 50.68, 49.87 49.69, 12.5 50 M12.5 50 C5.33 51.63, 0.65 47.13, 0 37.5 M12.5 50 C4.42 51.91, -0.47 45.08, 0 37.5 M0 37.5 C-1.96 32.11, -0.16 22.08, 0 12.5 M0 37.5 C0.22 29.41, 0.09 22.72, 0 12.5 M0 12.5 C1.63 2.59, 5.27 0.15, 12.5 0 M0 12.5 C-2.23 5.89, 5.13 -2.09, 12.5 0" stroke="#1e1e1e" stroke-width="1" fill="none"></path></g><g transform="translate(26.90999984741211 410.17720486184004) rotate(0 35.59000015258789 12.5)"><text x="35.59000015258789" y="0" font-family="Virgil, Segoe UI Emoji" font-size="20px" fill="#1e1e1e" text-anchor="middle" style="white-space: pre;" direction="ltr" dominant-baseline="text-before-edge">UserID</text></g><g stroke-linecap="round" transform="translate(170.2400485087344 397.67720486184004) rotate(0 52.5 25)"><path d="M12.5 0 M12.5 0 C30.95 -0.3, 50.63 -0.01, 92.5 0 M12.5 0 C45.17 0.12, 77.08 0.35, 92.5 0 M92.5 0 C98.94 -1.95, 105.09 4.35, 105 12.5 M92.5 0 C99.43 0.04, 103.68 2.86, 105 12.5 M105 12.5 C106.61 23.8, 106.31 29.67, 105 37.5 M105 12.5 C104.5 17.88, 105.03 23.63, 105 37.5 M105 37.5 C103.02 44.07, 100.29 50.3, 92.5 50 M105 37.5 C104.96 44.47, 102.54 50.64, 92.5 50 M92.5 50 C64.44 49.49, 33.38 51.48, 12.5 50 M92.5 50 C68.7 49.86, 43.71 50.33, 12.5 50 M12.5 50 C2.72 50.41, 0.61 47.13, 0 37.5 M12.5 50 C6.2 49.21, -0.49 47.43, 0 37.5 M0 37.5 C-0.97 28.22, 0.62 22.16, 0 12.5 M0 37.5 C0.37 28.87, 0.25 21.37, 0 12.5 M0 12.5 C-1.66 5.56, 5.99 -1.08, 12.5 0 M0 12.5 C1.79 3.84, 3 -0.48, 12.5 0" stroke="#1e1e1e" stroke-width="1" fill="none"></path></g><g transform="translate(175.4900485087344 410.17720486184004) rotate(0 47.25 12.5)"><text x="47.25" y="0" font-family="Virgil, Segoe UI Emoji" font-size="20px" fill="#1e1e1e" text-anchor="middle" style="white-space: pre;" direction="ltr" dominant-baseline="text-before-edge">UserName</text></g><g stroke-linecap="round"><g transform="translate(145.1539307596663 300.7034365939972) rotate(0 -39.42710813874507 44.889901107668976)"><path d="M-0.68 0.09 C-13.92 14.99, -67.08 74.29, -80.02 89.33 M1.17 -0.9 C-11.67 14.17, -64.57 75.8, -77.9 90.68" stroke="#1e1e1e" stroke-width="1" fill="none"></path></g><g transform="translate(145.1539307596663 300.7034365939972) rotate(0 -39.42710813874507 44.889901107668976)"><path d="M-66.92 60.84 C-70.41 70.65, -71.44 77.46, -76.37 88.91 M-67.59 63.41 C-69.27 68.37, -71.65 74.99, -77.56 90.25" stroke="#1e1e1e" stroke-width="1" fill="none"></path></g><g transform="translate(145.1539307596663 300.7034365939972) rotate(0 -39.42710813874507 44.889901107668976)"><path d="M-51.46 74.34 C-58.86 80.65, -63.8 84.05, -76.37 88.91 M-52.14 76.92 C-57.23 78.68, -63.15 82.21, -77.56 90.25" stroke="#1e1e1e" stroke-width="1" fill="none"></path></g></g><mask></mask><g stroke-linecap="round"><g transform="translate(168.05150981818645 301.8992578515251) rotate(0 27.23929176734032 42.80999935831335)"><path d="M-0.37 0.19 C8.74 14.48, 45.41 72.24, 54.85 86.37 M1.63 -0.75 C10.53 13.09, 44.57 69.98, 53.63 84.39" stroke="#1e1e1e" stroke-width="1" fill="none"></path></g><g transform="translate(168.05150981818645 301.8992578515251) rotate(0 27.23929176734032 42.80999935831335)"><path d="M30.48 64.84 C38.1 73.2, 43.14 78.74, 54.06 85.93 M30.66 66.67 C37.52 72.07, 44.35 76.81, 53.96 84.74" stroke="#1e1e1e" stroke-width="1" fill="none"></path></g><g transform="translate(168.05150981818645 301.8992578515251) rotate(0 27.23929176734032 42.80999935831335)"><path d="M47.98 54.13 C50.15 65.8, 49.69 74.72, 54.06 85.93 M48.17 55.95 C49.9 64.45, 51.57 72.35, 53.96 84.74" stroke="#1e1e1e" stroke-width="1" fill="none"></path></g></g><mask></mask><g stroke-linecap="round" transform="translate(505.50997307661896 214.22891124485312) rotate(0 64.01824011519756 43.42496007814097)"><path d="M21.71 0 M21.71 0 C42.3 2.02, 58.38 -0.28, 106.32 0 M21.71 0 C49.22 -0.59, 76.96 0.98, 106.32 0 M106.32 0 C122.03 0.79, 129.5 8.31, 128.04 21.71 M106.32 0 C120.64 -1.73, 126.97 5.28, 128.04 21.71 M128.04 21.71 C127.67 36.62, 127.76 51.05, 128.04 65.14 M128.04 21.71 C128.82 32.16, 128.09 42.48, 128.04 65.14 M128.04 65.14 C128.08 79.99, 119.02 85.21, 106.32 86.85 M128.04 65.14 C127.37 77.45, 120.31 88.41, 106.32 86.85 M106.32 86.85 C75.49 89.35, 40.24 86.29, 21.71 86.85 M106.32 86.85 C86.36 86.31, 64.72 87.46, 21.71 86.85 M21.71 86.85 C6.25 87.22, -0.26 79.17, 0 65.14 M21.71 86.85 C6.72 86.73, -1.98 79.45, 0 65.14 M0 65.14 C1.69 48.53, -0.02 35.61, 0 21.71 M0 65.14 C0.15 55.05, 0.38 45.94, 0 21.71 M0 21.71 C-1.44 8.83, 6.34 -1.18, 21.71 0 M0 21.71 C1.73 8.09, 5.19 1.09, 21.71 0" stroke="#1e1e1e" stroke-width="1" fill="none"></path></g><g transform="translate(555.9482132681105 245.15387132299412) rotate(0 13.579999923706055 12.5)"><text x="13.579999923706055" y="0" font-family="Virgil, Segoe UI Emoji" font-size="20px" fill="#1e1e1e" text-anchor="middle" style="white-space: pre;" direction="ltr" dominant-baseline="text-before-edge">Kill</text></g><g stroke-linecap="round"><g transform="translate(443.1416203901416 107.61245780950162) rotate(0 41.70101395782933 44.76626429954514)"><path d="M1.04 1.12 C15 16.08, 69.49 74.32, 83.28 88.87 M0.12 0.66 C13.96 15.38, 68.39 72.99, 82.25 87.28" stroke="#1e1e1e" stroke-width="1" fill="none"></path></g><g transform="translate(443.1416203901416 107.61245780950162) rotate(0 41.70101395782933 44.76626429954514)"><path d="M57.22 73.71 C63.9 77.79, 70.13 80.04, 81.69 86.89 M54.82 74.11 C64.93 79.24, 75.84 85.08, 83.07 86.57" stroke="#1e1e1e" stroke-width="1" fill="none"></path></g><g transform="translate(443.1416203901416 107.61245780950162) rotate(0 41.70101395782933 44.76626429954514)"><path d="M72.06 59.53 C74.8 67.41, 77.2 73.31, 81.69 86.89 M69.66 59.93 C74.02 70.52, 79.18 81.85, 83.07 86.57" stroke="#1e1e1e" stroke-width="1" fill="none"></path></g></g><mask></mask><g stroke-linecap="round"><g transform="translate(502.1821434335591 311.3749051283391) rotate(0 -30.490160931664718 38.45050012745)"><path d="M-0.16 -0.58 C-10.17 12.21, -50.02 63.19, -59.99 76.14 M-1.71 1.73 C-11.86 14.75, -50.99 65.24, -60.82 77.48" stroke="#1e1e1e" stroke-width="1" fill="none"></path></g><g transform="translate(502.1821434335591 311.3749051283391) rotate(0 -30.490160931664718 38.45050012745)"><path d="M-52.41 49.37 C-55.1 58.05, -56.25 65.5, -59.35 77.5 M-51.1 48.27 C-54.23 58.38, -58.37 67.76, -60.36 77.36" stroke="#1e1e1e" stroke-width="1" fill="none"></path></g><g transform="translate(502.1821434335591 311.3749051283391) rotate(0 -30.490160931664718 38.45050012745)"><path d="M-36.29 62.06 C-43.84 66.84, -49.92 70.41, -59.35 77.5 M-34.97 60.96 C-43.1 67.07, -52.27 72.49, -60.36 77.36" stroke="#1e1e1e" stroke-width="1" fill="none"></path></g></g><mask></mask><g stroke-linecap="round"><g transform="translate(578.5619163456988 314.9623689009227) rotate(0 -0.07568792408216041 37.16891020514291)"><path d="M0.24 -0.39 C0.42 12.37, 0.96 63.21, 0.95 75.97 M-1.1 -1.64 C-1.04 10.82, 0.08 61.52, 0.12 74.19" stroke="#1e1e1e" stroke-width="1" fill="none"></path></g><g transform="translate(578.5619163456988 314.9623689009227) rotate(0 -0.07568792408216041 37.16891020514291)"><path d="M-11.17 46.52 C-6.55 53.27, -3.09 62.21, 0.37 73.48 M-10.28 46.65 C-8.4 55.1, -3.98 61.89, -0.21 73.3" stroke="#1e1e1e" stroke-width="1" fill="none"></path></g><g transform="translate(578.5619163456988 314.9623689009227) rotate(0 -0.07568792408216041 37.16891020514291)"><path d="M9.34 46.24 C8.09 53.11, 5.67 62.13, 0.37 73.48 M10.24 46.37 C6.35 54.75, 4.99 61.62, -0.21 73.3" stroke="#1e1e1e" stroke-width="1" fill="none"></path></g></g><mask></mask><g stroke-linecap="round" transform="translate(366.2711598938623 396.48138360431204) rotate(0 64.5 25)"><path d="M12.5 0 M12.5 0 C37.17 1, 60.47 -1.51, 116.5 0 M12.5 0 C48.46 -0.42, 83.27 -0.07, 116.5 0 M116.5 0 C126.5 1.66, 128.66 3.25, 129 12.5 M116.5 0 C126.62 2.24, 127.82 3.58, 129 12.5 M129 12.5 C128.01 22.97, 130.12 30.53, 129 37.5 M129 12.5 C129.2 20.74, 128.67 28.37, 129 37.5 M129 37.5 C130.15 45.08, 123.13 50.47, 116.5 50 M129 37.5 C129.19 47.78, 124.9 49.19, 116.5 50 M116.5 50 C84.29 52.2, 54.06 52.49, 12.5 50 M116.5 50 C83.5 48.87, 50.63 50.41, 12.5 50 M12.5 50 C4.65 49.87, 1.92 45.07, 0 37.5 M12.5 50 C2.71 51.12, 0.21 44.97, 0 37.5 M0 37.5 C0.14 28.42, -0.57 20.28, 0 12.5 M0 37.5 C0.55 30.64, -0.5 24.68, 0 12.5 M0 12.5 C1.1 5.52, 5.17 0.73, 12.5 0 M0 12.5 C0.21 4.4, 4.35 0.49, 12.5 0" stroke="#1e1e1e" stroke-width="1" fill="none"></path></g><g transform="translate(375.71116233526857 408.98138360431204) rotate(0 55.05999755859375 12.5)"><text x="55.05999755859375" y="0" font-family="Virgil, Segoe UI Emoji" font-size="20px" fill="#1e1e1e" text-anchor="middle" style="white-space: pre;" direction="ltr" dominant-baseline="text-before-edge">AssassinID</text></g><g stroke-linecap="round" transform="translate(520.6156769644001 400.0688473768956) rotate(0 70 25)"><path d="M12.5 0 M12.5 0 C55.66 0.19, 96.14 1.23, 127.5 0 M12.5 0 C37.3 1.48, 60.26 0.19, 127.5 0 M127.5 0 C137.39 1.94, 138.97 3.65, 140 12.5 M127.5 0 C137.29 1.79, 140.37 2.81, 140 12.5 M140 12.5 C140.83 21.88, 140.5 31.35, 140 37.5 M140 12.5 C140.49 19.26, 139.06 27, 140 37.5 M140 37.5 C140.16 47.53, 135.89 49.29, 127.5 50 M140 37.5 C139.92 43.88, 137.21 48.42, 127.5 50 M127.5 50 C84.28 49.89, 39.97 50.92, 12.5 50 M127.5 50 C103.67 50.66, 80.31 50.35, 12.5 50 M12.5 50 C2.9 50.97, 0.18 45.08, 0 37.5 M12.5 50 C5.47 48.83, -1.32 45.85, 0 37.5 M0 37.5 C-0.78 28.77, 1.33 23.65, 0 12.5 M0 37.5 C0.72 31.8, 0.67 25.11, 0 12.5 M0 12.5 C0.18 4.37, 4.33 0.42, 12.5 0 M0 12.5 C-1.12 5.17, 2.11 -2.28, 12.5 0" stroke="#1e1e1e" stroke-width="1" fill="none"></path></g><g transform="translate(550.8156777273396 412.5688473768956) rotate(0 39.79999923706055 12.5)"><text x="39.79999923706055" y="0" font-family="Virgil, Segoe UI Emoji" font-size="20px" fill="#1e1e1e" text-anchor="middle" style="white-space: pre;" direction="ltr" dominant-baseline="text-before-edge">VictimID</text></g><g stroke-linecap="round" transform="translate(689.6637931387477 400.06884737689546) rotate(0 70 25)"><path d="M12.5 0 M12.5 0 C55.42 1.72, 99.56 1.2, 127.5 0 M12.5 0 C56.7 -0.13, 101.26 -1.32, 127.5 0 M127.5 0 C136.61 -1.6, 138.83 2.99, 140 12.5 M127.5 0 C137.99 0.47, 139.07 4.94, 140 12.5 M140 12.5 C141.05 22.35, 140.35 31.4, 140 37.5 M140 12.5 C140.22 18.69, 139.64 24.47, 140 37.5 M140 37.5 C141.09 47.12, 136.68 50.46, 127.5 50 M140 37.5 C140.56 46.55, 137.37 47.75, 127.5 50 M127.5 50 C91.97 50.81, 54.05 51.53, 12.5 50 M127.5 50 C104.32 50.39, 80.03 50.45, 12.5 50 M12.5 50 C2.32 49.2, 1.96 46.56, 0 37.5 M12.5 50 C4.71 48.55, 1.55 44.62, 0 37.5 M0 37.5 C0.95 29.3, 1.09 18.21, 0 12.5 M0 37.5 C-0.71 32.66, -1.12 26.63, 0 12.5 M0 12.5 C-0.67 5.06, 6.09 -1.48, 12.5 0 M0 12.5 C1.61 3.43, 4.28 -0.87, 12.5 0" stroke="#1e1e1e" stroke-width="1" fill="none"></path></g><g transform="translate(711.6737952749781 412.56884737689546) rotate(0 47.98999786376953 12.5)"><text x="47.98999786376953" y="0" font-family="Virgil, Segoe UI Emoji" font-size="20px" fill="#1e1e1e" text-anchor="middle" style="white-space: pre;" direction="ltr" dominant-baseline="text-before-edge">WeaponID</text></g><g stroke-linecap="round"><g transform="translate(632.9067398407935 292.33268779130213) rotate(0 57.0445949753053 46.614220707735)"><path d="M-0.76 -0.24 C18.37 15.4, 95.66 77.61, 114.85 93.16 M1.05 -1.4 C20.01 14.48, 95.2 78.69, 113.92 94.63" stroke="#1e1e1e" stroke-width="1" fill="none"></path></g><g transform="translate(632.9067398407935 292.33268779130213) rotate(0 57.0445949753053 46.614220707735)"><path d="M85.42 84.23 C94.23 86.84, 102.73 89.19, 112.56 93.94 M85.64 83.26 C94.51 87.69, 102.1 90.06, 113.31 94.47" stroke="#1e1e1e" stroke-width="1" fill="none"></path></g><g transform="translate(632.9067398407935 292.33268779130213) rotate(0 57.0445949753053 46.614220707735)"><path d="M98.74 68.61 C103.35 75.95, 107.75 83.13, 112.56 93.94 M98.96 67.65 C103.79 76.66, 107.49 83.61, 113.31 94.47" stroke="#1e1e1e" stroke-width="1" fill="none"></path></g></g><mask></mask></svg>